<svg width="763.3" height="74.309" viewBox="0 0 763.3 74.309" xmlns="http://www.w3.org/2000/svg"><g id="svgGroup" stroke-linecap="round" fill-rule="evenodd" font-size="9pt" stroke="#000" stroke-width="0.25mm" fill="#000" style="stroke:#000;stroke-width:0.25mm;fill:#000"><path d="M 702.3 72.905 L 702.3 63.405 L 661.7 63.405 L 661.7 40.705 L 696.4 40.705 L 696.4 31.205 L 661.7 31.205 L 661.7 10.905 L 701.3 10.905 L 701.3 1.405 L 650.7 1.405 L 650.7 72.905 L 702.3 72.905 Z M 172.4 72.905 L 172.4 40.805 L 207.5 40.805 L 207.5 72.905 L 218.6 72.905 L 218.6 1.405 L 207.5 1.405 L 207.5 31.305 L 172.4 31.305 L 172.4 1.405 L 161.4 1.405 L 161.4 72.905 L 172.4 72.905 Z M 151.5 46.905 L 140 46.905 A 26.99 26.99 0 0 1 139.858 48.253 C 138.902 55.529 134.859 62.804 125.002 64.457 A 26.613 26.613 0 0 1 120.6 64.805 C 104.8 64.805 98.8 51.405 98.8 37.105 C 98.8 24.16 103.786 11.879 116.638 9.81 A 24.901 24.901 0 0 1 120.6 9.505 A 24.884 24.884 0 0 1 126.409 10.146 C 135.215 12.256 138.611 19.177 139.846 24.937 A 28.301 28.301 0 0 1 140 25.705 L 151.5 25.705 A 28.096 28.096 0 0 0 131.37 1.499 A 36.324 36.324 0 0 0 120.8 0.005 C 104.384 0.005 92.611 10.206 88.707 25.532 A 47.277 47.277 0 0 0 87.3 37.205 A 43.793 43.793 0 0 0 91.138 55.73 C 96.286 66.787 106.334 73.908 119.576 74.289 A 39.08 39.08 0 0 0 120.7 74.305 A 34.461 34.461 0 0 0 134.212 71.734 C 144.084 67.554 150.158 58.618 151.442 47.439 A 38.105 38.105 0 0 0 151.5 46.905 Z M 763.3 72.905 L 763.3 63.405 L 721.2 63.405 L 721.2 63.205 L 762.3 10.905 L 762.3 1.405 L 709.7 1.405 L 709.7 10.905 L 748.8 10.905 L 748.8 11.105 L 707.7 63.405 L 707.7 72.905 L 763.3 72.905 Z M 11 72.905 L 11 44.905 L 29.4 44.905 C 46.147 44.905 40.64 67.799 42.94 72.399 A 1.769 1.769 0 0 0 43.3 72.905 L 55.1 72.905 L 55.1 72.205 A 1.477 1.477 0 0 1 54.269 71.27 C 52.175 66.305 55.598 43.916 41.999 40.011 A 14.044 14.044 0 0 0 40.7 39.705 L 40.7 39.505 C 48.6 37.705 54.1 31.105 54.1 22.005 C 54.1 9.515 46.49 2.217 32.285 1.469 A 47.232 47.232 0 0 0 29.8 1.405 L 0 1.405 L 0 72.905 L 11 72.905 Z M 309.7 72.905 L 309.7 44.905 L 328.1 44.905 C 344.847 44.905 339.34 67.799 341.64 72.399 A 1.769 1.769 0 0 0 342 72.905 L 353.8 72.905 L 353.8 72.205 A 1.477 1.477 0 0 1 352.969 71.27 C 350.875 66.305 354.298 43.916 340.699 40.011 A 14.044 14.044 0 0 0 339.4 39.705 L 339.4 39.505 C 347.3 37.705 352.8 31.105 352.8 22.005 C 352.8 9.515 345.19 2.217 330.985 1.469 A 47.232 47.232 0 0 0 328.5 1.405 L 298.7 1.405 L 298.7 72.905 L 309.7 72.905 Z M 237.6 72.905 L 243.5 55.705 L 273.4 55.705 L 279.3 72.905 L 291.3 72.905 L 264.5 1.405 L 252.6 1.405 L 226 72.905 L 237.6 72.905 Z M 502.3 72.905 L 502.3 63.405 L 466.1 63.405 L 466.1 1.405 L 455.1 1.405 L 455.1 72.905 L 502.3 72.905 Z M 391.5 1.405 L 364.3 1.405 L 364.3 72.905 L 391.7 72.905 C 411.5 72.905 423.3 60.205 423.3 37.205 A 50.699 50.699 0 0 0 421.408 22.853 C 417.662 10.169 408.512 2.78 395.4 1.579 A 42.759 42.759 0 0 0 391.5 1.405 Z M 599.3 72.905 L 599.3 43.905 L 618.1 43.905 A 31.903 31.903 0 0 0 629.243 42.11 C 635.074 39.929 639.275 35.682 640.834 28.952 A 27.663 27.663 0 0 0 641.5 22.705 C 641.5 10.373 634.809 3.921 624.927 2.016 A 36.14 36.14 0 0 0 618.1 1.405 L 588.3 1.405 L 588.3 72.905 L 599.3 72.905 Z M 542.5 74.305 A 35.947 35.947 0 0 0 560.497 69.798 C 568.914 64.996 574.618 56.662 576.711 46.278 A 46.422 46.422 0 0 0 577.6 37.105 C 577.6 17.306 565.982 2.51 547.432 0.293 A 41.542 41.542 0 0 0 542.5 0.005 A 36.115 36.115 0 0 0 524.596 4.435 C 516.135 9.201 510.399 17.515 508.294 27.913 A 46.322 46.322 0 0 0 507.4 37.105 A 41.898 41.898 0 0 0 511.811 56.434 C 516.81 66.098 525.825 72.627 537.647 74.024 A 41.333 41.333 0 0 0 542.5 74.305 Z M 76.6 72.905 L 76.6 1.405 L 65.6 1.405 L 65.6 72.905 L 76.6 72.905 Z M 532.837 63.057 A 25.371 25.371 0 0 0 542.5 64.805 A 27.907 27.907 0 0 0 548.585 64.17 C 561.03 61.394 566.1 49.893 566.1 37.105 A 42.452 42.452 0 0 0 565.405 29.279 C 563.867 21.103 559.703 14.299 552.163 11.24 A 25.522 25.522 0 0 0 542.5 9.505 A 27.993 27.993 0 0 0 536.277 10.166 C 523.933 12.976 518.9 24.364 518.9 37.105 A 42.566 42.566 0 0 0 519.601 44.971 C 521.144 53.151 525.307 59.982 532.837 63.057 Z M 375.3 63.405 L 375.3 10.905 L 391 10.905 A 24.393 24.393 0 0 1 399.093 12.149 C 405.946 14.548 409.43 20.191 410.937 27.128 A 47.842 47.842 0 0 1 411.9 37.205 A 40.683 40.683 0 0 1 409.771 51.279 C 407.704 56.797 403.911 61.018 397.458 62.659 A 26.168 26.168 0 0 1 391 63.405 L 375.3 63.405 Z M 11 35.405 L 11 10.905 L 27.6 10.905 A 31.631 31.631 0 0 1 32.903 11.308 C 39.541 12.442 42.567 15.949 42.956 21.517 A 18.442 18.442 0 0 1 43 22.805 A 13.335 13.335 0 0 1 41.785 28.667 C 39.648 33.082 34.738 35.405 27.4 35.405 L 11 35.405 Z M 309.7 35.405 L 309.7 10.905 L 326.3 10.905 A 31.631 31.631 0 0 1 331.603 11.308 C 338.241 12.442 341.267 15.949 341.656 21.517 A 18.442 18.442 0 0 1 341.7 22.805 A 13.335 13.335 0 0 1 340.485 28.667 C 338.348 33.082 333.438 35.405 326.1 35.405 L 309.7 35.405 Z M 599.3 34.405 L 599.3 10.905 L 617.6 10.905 C 624.582 10.905 628.663 13.523 629.783 19.176 A 18.188 18.188 0 0 1 630.1 22.705 C 630.1 30.691 625.914 34.392 617.643 34.405 A 27.789 27.789 0 0 1 617.6 34.405 L 599.3 34.405 Z M 258.4 11.605 L 258.6 11.605 L 270.3 46.405 L 246.8 46.405 L 258.4 11.605 Z" vector-effect="non-scaling-stroke"/></g></svg>