<svg width="112.8" height="71.5" viewBox="0 0 112.8 71.5" xmlns="http://www.w3.org/2000/svg"><g id="svgGroup" stroke-linecap="round" fill-rule="evenodd" font-size="9pt" stroke="#000" stroke-width="0.25mm" fill="#000" style="stroke:#000;stroke-width:0.25mm;fill:#000"><path d="M 11 71.5 L 11 43.5 L 29.4 43.5 C 46.147 43.5 40.64 66.394 42.94 70.994 A 1.769 1.769 0 0 0 43.3 71.5 L 55.1 71.5 L 55.1 70.8 A 1.477 1.477 0 0 1 54.269 69.865 C 52.175 64.901 55.598 42.511 41.999 38.606 A 14.044 14.044 0 0 0 40.7 38.3 L 40.7 38.1 C 48.6 36.3 54.1 29.7 54.1 20.6 C 54.1 8.11 46.49 0.813 32.285 0.064 A 47.232 47.232 0 0 0 29.8 0 L 0 0 L 0 71.5 L 11 71.5 Z M 112.8 71.5 L 112.8 62 L 76.6 62 L 76.6 0 L 65.6 0 L 65.6 71.5 L 112.8 71.5 Z M 11 34 L 11 9.5 L 27.6 9.5 A 31.631 31.631 0 0 1 32.903 9.903 C 39.541 11.037 42.567 14.544 42.956 20.113 A 18.442 18.442 0 0 1 43 21.4 A 13.335 13.335 0 0 1 41.785 27.262 C 39.648 31.677 34.738 34 27.4 34 L 11 34 Z" vector-effect="non-scaling-stroke"/></g></svg>