<svg width="171.5" height="74.104" viewBox="0 0 171.5 74.104" xmlns="http://www.w3.org/2000/svg"><g id="svgGroup" stroke-linecap="round" fill-rule="evenodd" font-size="9pt" stroke="#000" stroke-width="0.25mm" fill="#000" style="stroke:#000;stroke-width:0.25mm;fill:#000"><path d="M 104.7 21.902 L 112.3 21.902 C 111.2 7.902 101.4 0.002 85.9 0.002 A 36.514 36.514 0 0 0 76.289 1.187 C 72.811 2.139 69.893 3.644 67.625 5.637 A 16.381 16.381 0 0 0 62.1 18.402 A 16.976 16.976 0 0 0 63.544 25.587 C 66.952 33.001 75.902 35.679 85.1 37.802 A 616.119 616.119 0 0 1 88.172 38.498 C 100.739 41.387 107.101 43.635 107.101 53.291 A 22.353 22.353 0 0 1 107.1 53.502 C 107.1 61.358 102.65 67.632 89.618 67.701 A 41.111 41.111 0 0 1 89.4 67.702 A 33.844 33.844 0 0 1 81.304 66.806 C 72.41 64.613 67.923 58.547 66.835 50.319 A 29.393 29.393 0 0 1 66.7 49.102 L 59.1 49.102 A 26.26 26.26 0 0 0 63.176 62.034 C 66.611 67.285 72.016 70.906 78.75 72.731 A 41.897 41.897 0 0 0 89.7 74.102 A 37.014 37.014 0 0 0 98.954 73.02 C 109.62 70.265 114.7 62.546 114.7 53.302 C 114.7 38.802 103.4 35.202 88.7 32.002 C 78.2 29.702 69.7 27.702 69.7 18.102 A 10.196 10.196 0 0 1 75.54 8.45 C 78.161 7.112 81.634 6.402 85.9 6.402 A 28.973 28.973 0 0 1 92.476 7.084 C 100.057 8.854 103.744 14.013 104.7 21.902 Z M 7.3 72.802 L 7.3 43.102 L 29.1 43.102 C 47.458 43.102 42.166 67.768 44.658 72.348 A 1.711 1.711 0 0 0 45 72.802 L 52.8 72.802 L 52.8 72.202 A 1.504 1.504 0 0 1 51.958 71.266 C 49.802 66.294 52.96 43.868 39.287 39.965 A 14.068 14.068 0 0 0 38.2 39.702 L 38.2 39.502 A 17.101 17.101 0 0 0 51.008 26.225 A 22.108 22.108 0 0 0 51.5 21.502 A 22.739 22.739 0 0 0 49.82 12.469 C 46.863 5.591 40.064 1.757 29.894 1.34 A 46.22 46.22 0 0 0 28 1.302 L 0 1.302 L 0 72.802 L 7.3 72.802 Z M 171.5 72.802 L 171.5 66.402 L 132.9 66.402 L 132.9 1.302 L 125.6 1.302 L 125.6 72.802 L 171.5 72.802 Z M 7.3 36.702 L 7.3 7.702 L 26.7 7.702 A 34.417 34.417 0 0 1 32.868 8.202 C 40.763 9.648 44.2 14.204 44.2 21.602 A 16.716 16.716 0 0 1 42.953 28.268 C 40.665 33.571 35.305 36.398 27.51 36.679 A 36.409 36.409 0 0 1 26.2 36.702 L 7.3 36.702 Z" vector-effect="non-scaling-stroke"/></g></svg>