<svg width="176" height="74.304" viewBox="0 0 176 74.304" xmlns="http://www.w3.org/2000/svg"><g id="svgGroup" stroke-linecap="round" fill-rule="evenodd" font-size="9pt" stroke="#000" stroke-width="0.25mm" fill="#000" style="stroke:#000;stroke-width:0.25mm;fill:#000"><path d="M 105.3 22.702 L 116.7 22.702 A 24.564 24.564 0 0 0 112.723 10.635 C 109.766 6.264 105.288 3.149 99.59 1.462 A 38.381 38.381 0 0 0 88.7 0.002 A 38.973 38.973 0 0 0 78.586 1.226 C 69.213 3.752 63.7 10.105 63.7 19.502 A 17.258 17.258 0 0 0 65.079 26.561 C 68.595 34.524 78.249 37.305 87.2 39.702 A 626.966 626.966 0 0 0 87.247 39.714 C 99.346 42.784 106.235 44.129 107.106 51.674 A 15.084 15.084 0 0 1 107.2 53.402 A 10 10 0 0 1 102.489 62.702 C 100.379 63.961 97.448 64.744 93.477 64.881 A 37.136 37.136 0 0 1 92.2 64.902 C 79.267 64.902 73.506 58.847 72.401 49.793 A 26.032 26.032 0 0 1 72.3 48.802 L 60.9 48.802 A 25.5 25.5 0 0 0 65.849 63.149 C 71.269 70.338 80.746 74.302 92.5 74.302 A 40.653 40.653 0 0 0 102.065 73.255 C 105.6 72.398 108.551 71.042 110.936 69.28 A 19.606 19.606 0 0 0 118.7 52.802 C 118.7 37.702 105.7 34.402 91.9 30.902 C 82.7 28.602 75.2 26.902 75.2 18.902 A 8.781 8.781 0 0 1 76.609 13.85 C 78.161 11.57 80.987 10.141 85.058 9.622 A 29.702 29.702 0 0 1 88.8 9.402 C 99.2 9.402 104.1 14.102 105.3 22.702 Z M 11 72.902 L 11 44.902 L 29.4 44.902 C 46.147 44.902 40.64 67.796 42.94 72.396 A 1.769 1.769 0 0 0 43.3 72.902 L 55.1 72.902 L 55.1 72.202 A 1.477 1.477 0 0 1 54.269 71.267 C 52.175 66.303 55.598 43.913 41.999 40.008 A 14.044 14.044 0 0 0 40.7 39.702 L 40.7 39.502 C 48.6 37.702 54.1 31.102 54.1 22.002 C 54.1 9.512 46.49 2.215 32.285 1.466 A 47.232 47.232 0 0 0 29.8 1.402 L 0 1.402 L 0 72.902 L 11 72.902 Z M 176 72.902 L 176 63.402 L 139.8 63.402 L 139.8 1.402 L 128.8 1.402 L 128.8 72.902 L 176 72.902 Z M 11 35.402 L 11 10.902 L 27.6 10.902 A 31.631 31.631 0 0 1 32.903 11.305 C 39.541 12.44 42.567 15.946 42.956 21.515 A 18.442 18.442 0 0 1 43 22.802 A 13.335 13.335 0 0 1 41.785 28.664 C 39.648 33.079 34.738 35.402 27.4 35.402 L 11 35.402 Z" vector-effect="non-scaling-stroke"/></g></svg>